<?xml version="1.0" ?><svg id="Layer_1" style="enable-background:new 0 0 226.329 280.934;" version="1.1" viewBox="0 0 226.329 280.934" xml:space="preserve" xmlns="http://www.w3.org/2000/svg" xmlns:xlink="http://www.w3.org/1999/xlink"><g><ellipse cx="90.382" cy="64.226" rx="22.5" ry="22.5" transform="matrix(0.2336 -0.9723 0.9723 0.2336 6.8197 137.1045)"/><path d="M94.044,164.774l13.109-54.579l60.656-48.167l4.756,7.333l1.68-1.089l8.389-5.441l7.619,11.746l36.076-23.4L193.134,0   l-36.076,23.4l7.619,11.745l-10.068,6.53l4.475,6.897c-0.201,0.131-0.399,0.269-0.588,0.42l-59.58,47.313l-31.569-7.583   l-45.02-64.888c-2.518-3.629-7.502-4.531-11.132-2.011c-3.632,2.518-4.532,7.503-2.013,11.132l45.234,65.2l-14.324,59.631   L1.009,248.677c-2.698,6.271,0.203,13.543,6.474,16.24c6.273,2.697,13.547-0.201,16.243-6.473l36.624-85.17l8.227,1.975   l-6.057,92.513c-0.445,6.813,4.717,12.697,11.529,13.145c6.814,0.445,12.7-4.717,13.146-11.529L94.044,164.774z M169.733,50.283   c-1.68-2.116-4.215-3.148-6.723-3.006l-2.869-4.423l6.711-4.353l13.606,20.975l-6.713,4.354l-3.176-4.896   C171.97,56.221,171.755,52.829,169.733,50.283z M85.2,110.193l-0.388,0.377c-1.828,0.903-3.845,1.092-5.719,0.644   c-1.875-0.452-3.584-1.535-4.801-3.168l-0.176-0.515l3.6-6.849l3.695,0.888l3.692,0.887L85.2,110.193z M74.65,112.471   c1.147,0.776,2.415,1.341,3.742,1.659l0.002,0.001c0,0,0.004,0.001,0.006,0.002c1.325,0.318,2.709,0.389,4.082,0.219l-4.095,40.486   l-12.04,9.447L59.912,150.4L74.65,112.471z"/></g></svg>