<?xml version="1.0" encoding="utf-8"?><svg version="1.1" id="Layer_1" xmlns="http://www.w3.org/2000/svg" xmlns:xlink="http://www.w3.org/1999/xlink" x="0px" y="0px" viewBox="0 0 107.93 122.88" style="enable-background:new 0 0 107.93 122.88" xml:space="preserve"><style type="text/css">.st0{fill-rule:evenodd;clip-rule:evenodd;}</style><g><path class="st0" d="M75.58,52.03c12.02,7.62,22.88,11.22,32.2,10.37c1.63,32.92-10.53,52.37-32.08,60.48 c-20.81-7.6-33.11-26.2-32.2-60.98C54.44,62.47,65.18,60.11,75.58,52.03L75.58,52.03L75.58,52.03z M18.91,52.06 c-1.4,0-2.53-1.24-2.53-2.77c0-1.53,1.13-2.77,2.53-2.77h14.93c1.4,0,2.53,1.24,2.53,2.77c0,1.53-1.13,2.77-2.53,2.77H18.91 L18.91,52.06L18.91,52.06z M81.07,16.79h9.06c1.78,0,3.4,0.73,4.58,1.9c1.17,1.17,1.9,2.8,1.9,4.58v28.28 c-1.82-0.63-3.67-1.36-5.55-2.17V23.27c0-0.25-0.1-0.49-0.28-0.65c-0.17-0.17-0.4-0.28-0.65-0.28h-9.06v22.03 c-1.82-1.03-3.66-2.14-5.52-3.32l0,0l-0.03,0.02V6.48c0-0.25-0.1-0.49-0.28-0.65c-0.16-0.17-0.4-0.28-0.65-0.28l0,0H6.48 c-0.25,0-0.49,0.1-0.65,0.28C5.65,6,5.55,6.23,5.55,6.48v76.94c0,0.25,0.1,0.49,0.28,0.65c0.17,0.17,0.4,0.28,0.65,0.28H35.8 c0.38,1.9,0.81,3.75,1.28,5.54h-16v0.01v10.31c0,0.25,0.1,0.49,0.28,0.65c0.17,0.17,0.4,0.28,0.65,0.28h18.93 c0.83,1.93,1.74,3.78,2.7,5.55H22.01c-1.78,0-3.4-0.73-4.58-1.9c-1.17-1.17-1.9-2.79-1.9-4.58V89.9H6.48c-1.78,0-3.4-0.73-4.58-1.9 C0.73,86.82,0,85.2,0,83.42V6.48c0-1.79,0.73-3.4,1.9-4.58C3.07,0.73,4.69,0,6.48,0h68.11c1.78,0,3.4,0.73,4.58,1.9 c1.17,1.17,1.9,2.8,1.9,4.58V16.79L81.07,16.79L81.07,16.79z M18.91,22.4c-1.4,0-2.53-1.24-2.53-2.77s1.13-2.77,2.53-2.77h41.48 c1.4,0,2.53,1.24,2.53,2.77s-1.13,2.77-2.53,2.77H18.91L18.91,22.4L18.91,22.4z M18.91,37.23c-1.4,0-2.53-1.24-2.53-2.77 c0-1.53,1.13-2.77,2.53-2.77h41.48c1.4,0,2.53,1.24,2.53,2.77c0,1.53-1.13,2.77-2.53,2.77H18.91L18.91,37.23L18.91,37.23z M75.84,63.29c8.2,5.2,15.6,7.65,21.96,7.07c1.11,22.45-7.18,35.71-21.87,41.24c-0.09-0.03-0.18-0.07-0.28-0.1l0-48.07L75.84,63.29 L75.84,63.29L75.84,63.29z M75.59,56.09c10.64,6.74,20.25,9.94,28.5,9.18c1.44,29.14-9.32,46.35-28.39,53.54 c-18.42-6.72-29.31-23.19-28.51-53.98C56.89,65.34,66.39,63.25,75.59,56.09L75.59,56.09L75.59,56.09z"/></g></svg>