<svg width="288" height="288" xmlns="http://www.w3.org/2000/svg">
 <style type="text/css">.st0{fill:#005D95;}
	.st1{fill:#FFFFFF;}</style>

 <g>
  <title>background</title>
  <rect fill="none" id="canvas_background" height="290" width="290" y="-1" x="-1"/>
 </g>
 <g>
  <title>Layer 1</title>
  <g id="Layer_6_copy_3"/>
  <g id="Layer_6_copy_2">
   <g id="svg_1">
    <g id="XMLID_1_">
     <g id="svg_2">
      <path id="svg_3" d="m287.3,216.4l0,71.6l-256.4,0l0,-71.5l0.7,-0.4l69.3,0c21.7,0 36.3,-13.4 36.3,-33.1c0,-12.9 -6.7,-23.5 -20,-31.5c-12,-7.2 -15.8,-9.9 -15.8,-17.7c0,-5 3.8,-10.4 14.3,-10.4c5.8,0 10.2,1.8 13.3,3.5l3.9,-20.7c-4.1,-1.8 -15.4,-4.5 -22.3,-4.5c-17.3,0 -34.7,10.2 -34.7,33.1c0,6.7 2.7,19.6 20.9,30.7c9.7,6.3 14.7,10 14.5,19.2c-0.1,4.5 -3,9.9 -16.3,9.9l-64,0l0,0l0,-194.6l256.4,0l0,194.4l-13.6,14.3l13.5,7.7zm-110,0l0,-111.8l-22.1,0l0,111.8l22.1,0z" class="st0"/>
      <rect id="svg_4" height="111.8" width="22.1" class="st1" y="104.6" x="155.2"/>
      <path id="svg_5" d="m132.9,105.9l-3.9,20.7c-3.1,-1.7 -7.5,-3.5 -13.3,-3.5c-10.6,0 -14.3,5.4 -14.3,10.4c0,7.8 3.8,10.5 15.8,17.7c13.3,8.1 20,18.7 20,31.5c0,19.8 -14.6,33.1 -36.3,33.1l-69.3,0l16.2,-9l-16.8,-12.4l64,0c13.3,0 16.2,-5.4 16.3,-9.9c0.2,-9.2 -4.8,-12.9 -14.5,-19.2c-18.2,-11.1 -20.9,-24 -20.9,-30.7c0,-22.9 17.4,-33.1 34.7,-33.1c6.9,0 18.3,2.6 22.3,4.4z" class="st1"/>
      <polygon id="svg_6" points="47.899993896484375,207.10000610351562 31.600006222724915,216 30.899993777275085,216 30.899993777275085,194.39999389648438 31,194.39999389648438 " class="st1"/>
     </g>
     <g id="svg_7"/>
    </g>
   </g>
   <polygon id="svg_8" points="287.29998779296875,194.39999389648438 223.70001220703125,194.29998779296875 223.70001220703125,104.5 200.20001220703125,104.5 200.20001220703125,216.39999389648438 287.29998779296875,216.39999389648438 " class="st1"/>
   <rect id="svg_9" height="0.4" width="0.7" class="st0" y="216.1" x="30.9"/>
  </g>
  <g id="Layer_3">
   <g id="svg_10">
    <path id="svg_11" d="m270.5,264.7c4.3,0 7.7,3.4 7.7,7.6c0,4.4 -3.4,7.7 -7.8,7.7s-7.8,-3.4 -7.8,-7.7c0.1,-4.3 3.5,-7.6 7.9,-7.6l0,0zm0,1.3c-3.5,0 -6.1,2.8 -6.1,6.3c0,3.6 2.6,6.3 6.2,6.3c3.5,0 6,-2.8 6,-6.3c-0.1,-3.4 -2.6,-6.3 -6.1,-6.3l0,0zm-1.4,10.5l-1.5,0l0,-8c0.8,-0.1 1.7,-0.2 2.8,-0.2c1.3,0 2,0.2 2.5,0.6c0.5,0.3 0.8,1 0.8,1.7c0,1 -0.7,1.6 -1.6,1.9l0,0.1c0.7,0.3 1.1,0.9 1.3,1.9c0.2,1.2 0.4,1.7 0.6,2l-1.5,0c-0.2,-0.3 -0.4,-1 -0.6,-2.1c-0.2,-0.9 -0.7,-1.2 -1.9,-1.2l-1,0l0,3.3l0.1,0zm0,-4.5l1,0c1.1,0 2.1,-0.3 2.1,-1.3c0,-0.8 -0.5,-1.3 -1.9,-1.3c-0.6,0 -0.9,0 -1.2,0.1l0,2.5z" class="st1"/>
   </g>
  </g>
 </g>
</svg>