<svg id="svg" version="1.1" width="400" height="393.6842105263158" xmlns="http://www.w3.org/2000/svg" xmlns:xlink="http://www.w3.org/1999/xlink" style="display: block;"><g id="svgg"><path id="path1" d="M177.756 13.408 C 167.776 14.517,164.496 14.938,162.598 15.354 C 161.624 15.567,158.258 16.290,155.118 16.961 C 150.064 18.040,145.694 19.183,139.173 21.131 C 138.091 21.454,136.762 21.816,136.220 21.936 C 135.679 22.055,135.059 22.285,134.843 22.446 C 134.626 22.607,133.247 23.141,131.779 23.632 C 130.311 24.122,129.016 24.675,128.902 24.860 C 128.787 25.045,128.364 25.197,127.961 25.197 C 127.559 25.197,126.728 25.446,126.115 25.751 C 125.502 26.056,124.557 26.483,124.016 26.700 C 116.637 29.659,105.804 35.228,97.343 40.411 C 91.911 43.739,91.206 44.744,94.587 44.343 C 99.369 43.776,114.529 43.602,119.687 44.055 C 126.632 44.665,136.399 46.033,139.764 46.867 C 140.522 47.055,142.470 47.497,144.094 47.849 C 145.719 48.202,147.844 48.734,148.819 49.032 C 149.793 49.330,152.451 50.132,154.724 50.813 C 160.490 52.541,173.500 57.720,176.378 59.433 C 176.703 59.626,178.070 60.337,179.416 61.013 C 180.761 61.688,183.507 63.222,185.518 64.421 C 187.528 65.620,189.683 66.896,190.307 67.257 C 192.340 68.434,202.747 75.926,205.641 78.296 C 212.107 83.591,222.946 94.360,226.661 99.180 C 227.480 100.242,229.491 102.854,231.131 104.985 C 235.069 110.100,241.289 119.770,243.626 124.409 C 244.116 125.384,244.682 126.447,244.884 126.772 C 245.085 127.096,246.156 129.311,247.264 131.693 C 248.372 134.075,249.414 136.289,249.580 136.614 C 250.841 139.078,254.674 149.776,255.751 153.839 C 256.053 154.975,256.580 156.924,256.923 158.169 C 257.266 159.414,257.691 161.142,257.868 162.008 C 258.045 162.874,258.469 164.837,258.811 166.369 C 260.556 174.208,261.336 181.535,261.658 193.110 C 261.994 205.181,261.605 210.107,259.033 226.378 C 258.694 228.520,256.930 235.578,255.686 239.764 C 255.333 240.955,254.951 242.419,254.838 243.017 C 254.726 243.615,254.477 244.201,254.285 244.319 C 254.094 244.438,253.937 244.807,253.937 245.141 C 253.937 245.474,253.689 246.305,253.386 246.988 C 253.082 247.670,252.740 248.583,252.624 249.016 C 252.305 250.215,251.211 253.204,250.607 254.528 C 250.311 255.177,249.511 256.949,248.829 258.465 C 244.068 269.050,236.315 282.142,230.467 289.469 C 229.301 290.930,227.328 293.397,226.083 294.952 C 224.838 296.506,221.737 299.914,219.193 302.525 C 216.649 305.136,214.567 307.568,214.567 307.928 C 214.567 309.475,230.530 317.197,240.157 320.308 C 241.998 320.903,243.858 321.522,244.291 321.685 C 246.422 322.484,254.999 324.403,261.024 325.427 C 273.762 327.595,294.651 327.288,306.102 324.766 C 307.185 324.528,309.311 324.060,310.827 323.726 C 314.835 322.845,326.557 319.357,328.346 318.514 C 328.671 318.361,330.531 317.561,332.480 316.737 C 336.888 314.873,336.687 315.050,341.491 308.783 C 346.332 302.469,349.291 298.160,353.062 291.935 C 354.638 289.333,356.098 286.939,356.307 286.614 C 357.272 285.117,363.860 271.473,365.147 268.307 C 365.940 266.358,366.822 264.232,367.107 263.583 C 367.393 262.933,368.104 260.984,368.688 259.252 C 369.272 257.520,369.886 255.748,370.052 255.315 C 370.714 253.593,371.337 251.678,371.846 249.803 C 373.864 242.378,375.760 234.938,376.060 233.268 C 376.936 228.389,377.632 223.981,377.956 221.260 C 378.150 219.636,378.491 216.978,378.714 215.354 C 382.013 191.324,377.143 155.743,367.047 130.118 C 353.081 94.673,329.612 65.346,298.088 43.953 C 295.630 42.284,292.972 40.565,292.183 40.132 C 291.394 39.699,289.911 38.827,288.889 38.194 C 284.202 35.294,274.343 30.253,269.259 28.159 C 267.870 27.586,265.797 26.685,264.655 26.157 C 263.512 25.629,262.402 25.197,262.189 25.197 C 261.975 25.197,261.493 25.016,261.117 24.794 C 259.880 24.065,251.823 21.296,247.441 20.094 C 246.791 19.916,245.197 19.475,243.898 19.114 C 239.019 17.760,235.914 17.024,232.283 16.362 C 230.226 15.987,227.923 15.533,227.165 15.354 C 216.685 12.875,191.490 11.883,177.756 13.408 M100.787 66.735 C 100.463 66.827,98.040 67.075,95.403 67.288 C 90.729 67.664,88.747 67.954,82.677 69.150 C 79.027 69.869,76.707 70.404,74.409 71.056 C 73.435 71.333,71.486 71.876,70.079 72.264 C 68.671 72.651,67.351 73.115,67.146 73.295 C 66.940 73.475,66.473 73.622,66.108 73.622 C 65.743 73.622,64.937 73.887,64.317 74.210 C 63.696 74.534,62.889 74.799,62.523 74.801 C 62.157 74.802,61.756 74.967,61.633 75.167 C 61.509 75.366,60.886 75.645,60.248 75.785 C 59.610 75.925,58.195 76.470,57.105 76.996 C 56.014 77.522,54.988 77.956,54.825 77.959 C 54.043 77.976,49.920 82.598,47.235 86.468 C 46.915 86.929,45.667 88.612,44.462 90.208 C 43.257 91.804,41.785 93.907,41.192 94.882 C 40.599 95.856,39.395 97.796,38.517 99.192 C 34.252 105.978,28.116 117.546,25.977 122.835 C 25.495 124.026,24.684 125.886,24.175 126.969 C 23.665 128.051,23.000 129.646,22.697 130.512 C 21.347 134.366,20.727 136.078,20.416 136.811 C 19.870 138.099,18.008 144.224,16.408 150.000 C 16.079 151.191,15.522 153.583,15.171 155.315 C 14.820 157.047,14.370 159.085,14.170 159.843 C 13.830 161.136,13.218 164.633,12.207 171.064 C 10.335 182.983,10.163 207.786,11.871 219.488 C 12.093 221.004,12.432 223.396,12.625 224.803 C 12.819 226.211,13.228 228.602,13.535 230.118 C 13.841 231.634,14.301 233.937,14.555 235.236 C 16.489 245.110,21.056 259.592,24.983 268.307 C 25.276 268.957,25.995 270.640,26.582 272.047 C 28.624 276.948,36.466 291.624,38.994 295.276 C 39.369 295.817,40.357 297.323,41.189 298.622 C 42.022 299.921,42.836 301.161,42.998 301.378 C 43.160 301.594,44.483 303.366,45.938 305.315 C 58.107 321.618,69.875 333.320,86.811 345.961 C 96.925 353.509,109.249 360.415,124.016 366.807 C 124.774 367.135,125.748 367.557,126.181 367.746 C 126.614 367.934,127.943 368.453,129.134 368.898 C 130.325 369.343,131.654 369.865,132.087 370.059 C 132.520 370.253,135.531 371.239,138.780 372.250 C 148.518 375.281,149.544 375.547,158.465 377.350 C 160.197 377.700,162.428 378.165,163.422 378.384 C 164.416 378.602,166.631 378.938,168.343 379.129 C 186.258 381.131,187.799 381.230,197.047 380.977 C 209.547 380.635,214.763 380.181,225.591 378.492 C 231.273 377.605,242.480 375.165,244.291 374.421 C 244.724 374.243,246.496 373.700,248.228 373.214 C 252.559 372.001,257.146 370.516,257.967 370.063 C 258.343 369.855,258.842 369.685,259.075 369.685 C 259.308 369.685,260.418 369.267,261.541 368.755 C 262.664 368.244,264.026 367.688,264.567 367.520 C 265.426 367.254,272.354 364.148,277.516 361.714 C 280.636 360.244,287.147 356.643,290.234 354.681 C 291.900 353.622,293.369 352.756,293.498 352.756 C 293.627 352.756,294.213 352.427,294.799 352.025 C 295.386 351.623,296.372 350.986,296.991 350.610 C 298.997 349.391,297.696 349.207,290.026 349.623 C 273.288 350.533,253.697 348.423,240.157 344.253 C 235.581 342.844,227.620 340.181,226.181 339.578 C 225.531 339.306,224.203 338.769,223.228 338.385 C 217.682 336.201,211.838 333.316,203.346 328.573 C 198.728 325.994,189.446 319.428,183.858 314.789 C 177.502 309.511,168.655 300.840,165.154 296.457 C 163.857 294.833,161.909 292.415,160.827 291.085 C 157.944 287.541,150.787 277.417,150.787 276.882 C 150.787 276.747,150.540 276.357,150.237 276.015 C 149.934 275.673,148.657 273.445,147.399 271.063 C 140.029 257.107,136.770 248.926,133.202 235.433 C 131.317 228.304,130.991 226.763,129.989 220.276 C 127.857 206.468,127.926 184.841,130.141 172.638 C 131.653 164.309,131.905 163.206,134.632 152.953 C 135.848 148.384,139.259 139.366,141.971 133.554 C 142.706 131.980,143.307 130.581,143.307 130.447 C 143.307 128.809,154.781 110.274,159.230 104.724 C 160.359 103.317,161.953 101.280,162.773 100.197 C 165.216 96.973,168.087 93.789,171.949 90.024 C 176.014 86.060,176.236 85.454,174.114 84.124 C 172.236 82.947,162.058 77.868,160.236 77.199 C 158.790 76.667,158.464 76.535,155.363 75.222 C 154.307 74.775,153.198 74.409,152.897 74.409 C 152.597 74.409,152.044 74.250,151.668 74.056 C 149.151 72.756,143.815 71.217,134.252 69.035 C 127.584 67.513,103.829 65.881,100.787 66.735 " stroke="none" fill="#cdda28" fill-rule="evenodd"></path></g></svg>
