<?xml version="1.0" encoding="utf-8"?>
<!-- Generator: Adobe Illustrator 21.1.0, SVG Export Plug-In . SVG Version: 6.00 Build 0)  -->
<!DOCTYPE svg PUBLIC "-//W3C//DTD SVG 1.1//EN" "http://www.w3.org/Graphics/SVG/1.1/DTD/svg11.dtd">
<svg version="1.1" xmlns="http://www.w3.org/2000/svg" xmlns:xlink="http://www.w3.org/1999/xlink" x="0px" y="0px"
	 viewBox="0 0 612 792" style="enable-background:new 0 0 612 792;" xml:space="preserve">
<style type="text/css">
	.st0{fill:#005D95;}
	.st1{fill:#FFFFFF;}
</style>
<g id="Layer_6_copy_3">
</g>
<g id="Layer_6_copy_2">
	<g>
		<g id="XMLID_1_">
			<g>
				<path class="st0" d="M400.3,360.4V432H143.9v-71.5l0.7-0.4l69.3,0c21.7,0,36.3-13.4,36.3-33.1c0-12.9-6.7-23.5-20-31.5
					c-12-7.2-15.8-9.9-15.8-17.7c0-5,3.8-10.4,14.3-10.4c5.8,0,10.2,1.8,13.3,3.5l3.9-20.7c-4.1-1.8-15.4-4.5-22.3-4.5
					c-17.3,0-34.7,10.2-34.7,33.1c0,6.7,2.7,19.6,20.9,30.7c9.7,6.3,14.7,10,14.5,19.2c-0.1,4.5-3,9.9-16.3,9.9l-64,0l0,0V144h256.4
					v194.4l-13.6,14.3L400.3,360.4z M290.3,360.4V248.6h-22.1v111.8H290.3z"/>
				<rect x="268.2" y="248.6" class="st1" width="22.1" height="111.8"/>
				<path class="st1" d="M245.9,249.9l-3.9,20.7c-3.1-1.7-7.5-3.5-13.3-3.5c-10.6,0-14.3,5.4-14.3,10.4c0,7.8,3.8,10.5,15.8,17.7
					c13.3,8.1,20,18.7,20,31.5c0,19.8-14.6,33.1-36.3,33.1l-69.3,0l16.2-9L144,338.4l64,0c13.3,0,16.2-5.4,16.3-9.9
					c0.2-9.2-4.8-12.9-14.5-19.2c-18.2-11.1-20.9-24-20.9-30.7c0-22.9,17.4-33.1,34.7-33.1C230.5,245.5,241.9,248.1,245.9,249.9z"/>
				<polygon class="st1" points="160.9,351.1 144.6,360 143.9,360 143.9,338.4 144,338.4 				"/>
			</g>
			<g>
			</g>
		</g>
	</g>
	<polygon class="st1" points="400.3,338.4 336.7,338.3 336.7,248.5 313.2,248.5 313.2,360.4 400.3,360.4 	"/>
	<rect x="143.9" y="360.1" class="st0" width="0.7" height="0.4"/>
</g>
<g id="Layer_3">
	<g>
		<path class="st1" d="M383.5,407.7c4.3,0,7.7,3.4,7.7,7.6c0,4.4-3.4,7.7-7.8,7.7s-7.8-3.4-7.8-7.7
			C375.7,411,379.1,407.7,383.5,407.7L383.5,407.7z M383.5,409c-3.5,0-6.1,2.8-6.1,6.3c0,3.6,2.6,6.3,6.2,6.3c3.5,0,6-2.8,6-6.3
			C389.5,411.9,387,409,383.5,409L383.5,409z M382.1,419.5h-1.5v-8c0.8-0.1,1.7-0.2,2.8-0.2c1.3,0,2,0.2,2.5,0.6
			c0.5,0.3,0.8,1,0.8,1.7c0,1-0.7,1.6-1.6,1.9v0.1c0.7,0.3,1.1,0.9,1.3,1.9c0.2,1.2,0.4,1.7,0.6,2h-1.5c-0.2-0.3-0.4-1-0.6-2.1
			c-0.2-0.9-0.7-1.2-1.9-1.2h-1V419.5z M382.1,415h1c1.1,0,2.1-0.3,2.1-1.3c0-0.8-0.5-1.3-1.9-1.3c-0.6,0-0.9,0-1.2,0.1V415z"/>
	</g>
</g>
</svg>
