<svg width="213.91251" height="213.91251" xmlns="http://www.w3.org/2000/svg" xmlns:svg="http://www.w3.org/2000/svg" version="1.1" xml:space="preserve">
 <metadata id="metadata8">image/svg+xml</metadata>
 <g class="layer">
  <title>Layer 1</title>
  <rect fill="#e51636" height="0" id="svg_1" transform="matrix(0.125 0 0 -0.125 0 213.913)" width="0" x="207.23749" y="27.95625"/>
  <g id="svg_2">
   <path d="m58.2525,135.435l101.69125,0l6.93625,-10.49513l-115.56313,0l6.93563,10.49513" fill="#e51636" fill-rule="nonzero" id="path14"/>
   <path d="m147.6225,46.92375l36.6275,0l-0.00875,72.51413c0,28.28963 -18.9475,49.062 -38.17188,62.84813c-3.5875,2.57275 -7.17825,4.898 -10.647,6.97663l5.98488,-39.47025l9.2815,0l0,-9.38375l-83.1805,0l0,9.38375l7.24763,0l5.95213,39.25638c-3.31788,-2.021 -6.747,-4.27488 -10.17425,-6.75875c-19.01025,-13.78375 -37.75445,-34.54738 -37.75445,-62.84338l0.09473,-72.52288l34.00685,0c-5.88525,9.2825 -11.77,20.1225 -12.53913,32.71125c-1.726,28.24188 26.50538,45.00938 44.40675,40.77363c-17.24463,-5.5445 -26.65275,-24.28425 -12.185,-44.10363c0.04538,3.55 2.01313,7.20625 5.49125,8.82125c-2.66663,-13.8375 13.76063,-34.685 19.08738,-35.91875c-6.03475,29.54625 20.27238,30.515 21.36375,49.099c0.68113,11.59913 -5.80425,19.2125 -12.2715,21.84575c14.42975,1.3965 31.57063,-4.27388 38.34438,-30.24125c4.32,-16.56225 -3.58875,-30.61475 -10.95625,-42.98725l-0.00002,-0.00001zm-6.14588,-28.1875c-11.33938,4.695 -18.00738,24.4125 -8.08213,43.32125c0,0 -11.57075,-3.18625 -8.90375,-26.21625c4.17475,-36.06125 -32.13963,-42.21125 -39.35938,-30.34125c14.40525,-2.90625 21.9805,28.38125 -4.35163,47.62625c18.84913,-24.62875 2.606,-45.52625 -8.10838,-40.4975c10.374,5.77375 7.4375,13.48875 1.18213,23.515l-51.74413,0l-0.10938,83.29563c0,33.48925 22.19538,57.06838 42.2065,71.57663c10.817,7.84138 22.6075,13.84523 31.23788,17.73293l-3.42775,-58.95655l6.23138,0l3.5875,61.70899c3.8715,1.58838 6.23575,2.41114 6.23575,2.41114c0,0 2.3365,-0.80371 6.17438,-2.35889l3.59038,-61.76124l6.23138,0l-3.43263,59.04395c8.72513,-3.8789 20.71338,-9.89995 31.7165,-17.79145c20.20375,-14.48588 42.67,-38.06838 42.67,-71.6055l0.00875,-83.29563l-53.68375,0c-2.212,-4.02125 -3.94638,-8.82875 0.13038,-17.4075" fill="#e51636" fill-rule="nonzero" id="path16"/>
   <path d="m153.0575,196.33638l1.69875,0l0,6.16499l2.055,0l0,-6.16499l1.69875,0l0,-1.74125l-5.4525,0l0,1.74125" fill="#e51636" fill-rule="nonzero" id="path18"/>
   <path d="m165.44875,194.59513l-1.69875,4.22613l-1.60375,-4.22613l-2.02375,0l-1.3425,7.90624l2.045,0l0.66,-4.55124l0.02125,0l1.81375,4.55124l0.8175,0l1.89875,-4.55124l0.02125,0l0.57625,4.55124l2.055,0l-1.195,-7.90624l-2.045,0" fill="#e51636" fill-rule="nonzero" id="path20"/>
  </g>
 </g>
</svg>
