<?xml version="1.0" encoding="utf-8"?>
<!-- Generator: Adobe Illustrator 16.0.0, SVG Export Plug-In . SVG Version: 6.00 Build 0)  -->
<!DOCTYPE svg PUBLIC "-//W3C//DTD SVG 1.1//EN" "http://www.w3.org/Graphics/SVG/1.1/DTD/svg11.dtd">
<svg version="1.1" id="Layer_1" xmlns="http://www.w3.org/2000/svg" xmlns:xlink="http://www.w3.org/1999/xlink" x="0px" y="0px"
	 width="223.2px" height="101.989px" viewBox="0 0 223.2 101.989" enable-background="new 0 0 223.2 101.989" xml:space="preserve">
<g>
	<path fill="#FF671F" d="M181.903,44.706c0,0,6.76,3.84,9.52,11.757c1.387,4.593,0.662,8.974-0.85,12.15
		c-0.326,0.684-0.688,1.348-1.08,1.986c-1.678,2.726-3.936,4.984-6.049,6.559c-3.074,2.485-5.967,3.583-9.328,4.736
		c-1.818,0.627-3.408,0.979-5.74,1.778c0.756-1.794,2.275-3.896,3.439-5.31c0.654-0.795,1.391-1.519,2.094-2.272
		c1.834-1.97,3.496-4.162,4.547-5.841c1.957-3.209,3.736-6.567,4.705-12.376c0.266-1.447,0.318-3.342,0.244-4.792
		C183.247,48.474,181.903,44.706,181.903,44.706z"/>
	<path fill="#FF671F" d="M164.245,94.446c-1.514-1.631-3.516-4.189-4.678-6.354c-1.619-3.025-2.895-6.588-3.377-10.397
		c-0.432-3.387-0.221-7.009,0.736-9.996c2.051-6.448,7.537-10.308,10.799-16.173c1.322-2.447,2.248-5.239,2.533-8.07
		c0.264-2.704-0.223-5.795-1.488-8.495c-0.469-0.979-0.99-2.049-1.664-3.053c0,0,2.076,0.909,4.15,2.678
		c0.898,0.746,1.863,1.66,2.83,2.771c0.426,0.491,4.299,5.235,5.523,11.689c0.291,1.618,0.457,3.128,0.521,4.537
		c0.131,6.792-2.33,12.39-4.371,15.319c-0.895,1.284-1.812,2.542-2.863,3.707c-1.955,2.165-4.139,4.066-7.164,9.062
		c-0.336,0.592-0.828,1.61-1.004,2.158c-0.385,1.213-0.758,2.351-0.926,3.374c-0.348,2.111-0.193,3.789-0.047,5.009
		C163.93,93.667,164.245,94.444,164.245,94.446z"/>
	<path fill="#009A44" d="M219.6,47.979c0,14.326-5.295,26.133-15.908,35.447c-6.967,6.097-14.9,9.625-23.814,10.577
		c-2.689,0.316-6,0.366-8.391,0.348l-3.375-0.074c0,0-0.752-1.157-0.789-3.874c0.09-2.878,0.768-4.401,0.768-4.401
		c0.574,0.073,1.33,0.053,1.377,0.051c4.584-0.214,14.887-3.891,20.342-7.625c9.605-6.622,14.404-16.311,14.404-29.034
		c0-6.83-1.486-13.208-4.477-19.147c-6.109-12.205-17.246-18.304-33.436-18.304c-3.848,0-11.311,0.869-16.043,1.902l-0.012,85.679
		c-7.398-2.508-13.844-7.413-19.354-14.731L83.907,25.076v51.851c0,6.324,0.522,10.708,1.569,13.188
		c0.855,1.986,2.437,3.592,4.742,4.796H70.275v-9.743c-2.078,2.643-4.435,4.783-7.077,6.432c-6.097,3.725-12.985,5.576-20.651,5.576
		c-8.482,0-15.627-2.064-21.415-6.215c-5.32-3.82-8.764-9.106-10.335-15.844C10.197,72.342,9.9,67.73,9.9,61.286V20.437
		c0-6.311-0.523-10.707-1.555-13.172C7.474,5.267,5.892,3.674,3.6,2.465h26.619c-2.469,1.287-4.155,3.11-5.067,5.441
		c-0.817,2.559-1.234,6.742-1.234,12.53v40.849c0,4.933,0.363,8.566,1.099,10.909c1.435,4.625,4.183,8.271,8.244,10.898
		c3.899,2.52,8.402,3.767,13.51,3.767c6.111,0,11.43-1.768,15.974-5.319c3.027-2.386,5.082-5.069,6.164-8.056
		c0.658-1.81,0.979-4.274,0.979-7.399V20.437c0-6.311-0.521-10.707-1.553-13.172c-0.873-1.998-2.452-3.591-4.746-4.799l21.082,0.066
		c0.388,0.953,1.516,2.683,3.376,5.188l48.18,61.56V19.058c-0.055-5.144-0.623-10.608-1.961-12.665
		c-1.391-2.127-1.906-2.347-4.295-3.862c0,0,34.389-0.066,37.363-0.066c9.143,0,16.674,1.113,22.596,3.363
		c9.527,3.688,16.928,9.354,22.207,17.022C217.122,30.166,219.6,38.544,219.6,47.979z"/>
	<g>
		<path fill="#009A44" d="M202.833,93.466c1.652,0,2.971,1.343,2.971,3.021c0,1.707-1.318,3.037-2.982,3.037
			c-1.652,0-2.996-1.33-2.996-3.037c0-1.679,1.344-3.021,2.996-3.021H202.833z M202.821,93.936c-1.332,0-2.418,1.141-2.418,2.551
			c0,1.438,1.086,2.567,2.43,2.567c1.344,0.013,2.418-1.128,2.418-2.553s-1.074-2.565-2.418-2.565H202.821z M202.256,98.248h-0.539
			v-3.372c0.283-0.041,0.553-0.08,0.955-0.08c0.51,0,0.846,0.107,1.049,0.256c0.201,0.147,0.307,0.375,0.307,0.697
			c0,0.442-0.295,0.712-0.658,0.819v0.027c0.297,0.054,0.498,0.323,0.564,0.819c0.082,0.524,0.162,0.726,0.215,0.833h-0.564
			c-0.08-0.107-0.16-0.417-0.227-0.859c-0.082-0.43-0.295-0.591-0.727-0.591h-0.375V98.248z M202.256,96.38h0.389
			c0.443,0,0.82-0.161,0.82-0.577c0-0.295-0.217-0.592-0.82-0.592c-0.176,0-0.295,0.014-0.389,0.028V96.38z"/>
	</g>
</g>
</svg>
