<?xml version="1.0" ?><svg id="Layer_1" style="enable-background:new 0 0 195.614 319.417;" version="1.1" viewBox="0 0 195.614 319.417" xml:space="preserve" xmlns="http://www.w3.org/2000/svg" xmlns:xlink="http://www.w3.org/1999/xlink"><g><path d="M61.981,104.104c0,12.427,10.074,22.5,22.5,22.5c12.428,0,22.5-10.073,22.5-22.5c0-12.427-10.072-22.5-22.5-22.5   C72.056,81.604,61.981,91.677,61.981,104.104z M98.867,106.514c0.246,4.522-5.885,8.532-13.694,8.96   c-7.811,0.426-14.342-2.894-14.588-7.416c-0.248-4.522,6.331-0.345,14.14-0.771C92.535,106.861,98.618,101.993,98.867,106.514z"/><path d="M45.366,305.661c-0.769,6.787,4.111,12.908,10.896,13.676c6.783,0.768,12.908-4.107,13.677-10.894l10.451-92.291h8.185   l10.451,92.291c0.769,6.787,6.894,11.662,13.676,10.894c6.785-0.768,11.664-6.889,10.896-13.676l-12.068-106.568v-52.132   l34.423-10.042c2.723-0.795,4.821-2.972,5.516-5.722l8.726-34.575c0.067-0.143,0.126-0.292,0.165-0.451l6.236-24.711   c0.338-1.339-0.473-2.698-1.812-3.036c-1.334-0.343-16.767,11.063-17.447,13.763l-10.261,40.656l-32.558,9.498   c-0.236-0.022-0.475-0.036-0.717-0.036H65.571l-33.128-9.37c-0.06-0.078-0.121-0.157-0.181-0.235L21.719,82.325   C21.016,79.632,5.491,68.353,4.16,68.706c-1.336,0.349-2.136,1.715-1.787,3.051l6.438,24.659c0.041,0.158,0.101,0.307,0.169,0.449   l5.535,21.197c-1.084,1.156-2.157,2.325-3.217,3.513c-3.756,4.211-7.36,8.61-10.777,13.176L0,135.449l0.529,0.691   c10.557,13.802,22.632,25.882,35.891,35.905l1.029,0.778l0.655-1.111c4.554-7.729,9.71-15.015,15.332-21.703   c0.469-0.557,0.934-1.119,1.409-1.668l0.751-0.867l-0.865-0.753c-0.466-0.406-0.916-0.834-1.378-1.246l4.083,1.155v38.343   c-1.341,0.831-2.675,1.676-4,2.545c-9.759,6.4-19.063,13.804-27.76,22.152l-0.627,0.603l0.409,0.768   c5.385,10.101,11.631,19.672,18.564,28.45l0.877,1.11l0.907-1.084c1.141-1.363,2.305-2.698,3.479-4.021   c1.506-1.698,3.033-3.368,4.591-4.997L45.366,305.661z M36.784,169.431c-12.471-9.573-23.867-21.002-33.897-33.998   c6.055-8.019,12.683-15.523,19.726-22.333c8.548,13.073,18.548,24.704,29.75,34.601C46.66,154.39,41.427,161.689,36.784,169.431z    M78.374,206.446c-12.178,8.481-23.408,18.736-33.415,30.509c-6.328-8.141-12.061-16.954-17.059-26.229   c11.572-11.013,24.203-20.374,37.568-27.846C69.115,191.189,73.45,199.105,78.374,206.446z M80.68,143.478h3.801h3.799l1.9,7.5   l-0.289,0.456c-1.566,1.306-3.484,1.961-5.413,1.962c-1.928-0.002-3.843-0.655-5.408-1.958l-0.291-0.46L80.68,143.478z    M80.453,155.657c1.297,0.486,2.662,0.74,4.027,0.739h0.002c0,0,0.004,0,0.006,0c1.363,0,2.725-0.254,4.021-0.74l5.473,40.322   l-9.5,12l-9.5-12L80.453,155.657z"/><path d="M22.105,64.085l17.294-2.739c4.593,8.182,9.782,15.936,15.496,23.112l0.862,1.083l0.906-1.046   c8.635-9.971,18.269-18.747,28.632-26.083l0.937-0.663l-0.66-0.938c-5.773-8.206-10.723-17.217-14.708-26.785l-0.492-1.182   l-1.123,0.616c-5.996,3.292-11.847,6.993-17.517,11.063c-0.056-6.514,0.413-13.03,1.437-19.498l0.18-1.136l-31.243-4.948   l-0.18,1.136c-2.463,15.55-2.463,31.319,0,46.87L22.105,64.085z M50.723,21.804c-1.006,6.767-1.413,13.583-1.261,20.391   c-4.613,3.423-9.106,7.08-13.441,10.986l-0.653,0.589l0.396,0.785c0.792,1.566,1.613,3.113,2.449,4.65l-14.191,2.248   c-2.191-14.565-2.191-29.313,0-43.878L50.723,21.804z M55.84,81.942c-6.652-8.499-12.575-17.789-17.624-27.641   c9.682-8.638,20.11-16.103,31.024-22.206c3.808,8.921,8.443,17.355,13.798,25.103C73.239,64.243,64.099,72.559,55.84,81.942z"/><path d="M165.925,30.956l1.087-0.37l-0.368-1.087c-3.034-8.969-5.032-18.376-5.938-27.959L160.562,0l-1.433,0.581   c-10.201,4.139-20.14,9.485-29.538,15.888l-0.322,0.22l-0.122,0.371c-3.35,10.168-5.682,20.798-6.931,31.594l-0.259,2.243   l1.966-1.109C137.391,42.193,151.522,35.857,165.925,30.956z M158.572,3.298c0.942,8.842,2.801,17.524,5.531,25.851   c-13.459,4.651-26.673,10.542-39.327,17.529c1.267-9.74,3.427-19.324,6.433-28.528C139.939,12.233,149.136,7.242,158.572,3.298z"/><path d="M168.006,156.939l-0.514-0.025c-7.417-0.36-14.951-0.605-22.392-0.727l-1.701-0.028l0.608,1.589   c2.489,6.499,5.361,12.722,8.597,18.655c-8.28-2.207-16.548-4.672-24.663-7.372l-1.396-0.464l-0.114,1.467   c-1.123,14.463,0.036,28.898,3.444,42.903l0.302,1.241l1.203-0.43c12.816-4.586,25.977-8.471,39.192-11.581   c0.677,0.769,1.359,1.533,2.053,2.286l0.922,1.001l0.833-1.076c5.995-7.741,12.744-14.684,20.061-20.637l1.174-0.955l-1.234-0.875   c-9.569-6.782-18.334-15.049-26.05-24.573L168.006,156.939z M173.404,201.894c-11.203-12.419-20.153-26.998-26.629-43.376   c6.686,0.126,13.435,0.351,20.093,0.669c7.439,9.114,15.829,17.088,24.962,23.726C185.162,188.477,178.973,194.853,173.404,201.894   z M128.619,171.679c8.412,2.766,16.976,5.269,25.542,7.504c4.313,7.516,9.231,14.538,14.724,21.023   c-12.493,2.984-24.932,6.651-37.071,10.947C128.804,198.247,127.73,184.981,128.619,171.679z"/></g></svg>