<svg viewBox="0 0 174.752 313.121" xml:space="preserve" xmlns="http://www.w3.org/2000/svg" enable-background="new 0 0 174.752 313.121"><path d="M135.39 222.543a8 8 0 0 0 8.454-7.519c2.472-42.248-2.813-69.811-15.706-81.925-5.602-5.264-11.075-6.176-13.895-6.245-.165-.01-.329-.025-.497-.025H75.112c-.169 0-.335.015-.501.025-2.82.07-8.292.982-13.892 6.244-12.892 12.114-18.176 39.678-15.704 81.926.214 3.654 2.85 6.585 6.255 7.338v3.514h-6.917v40.333h17.236l-2.736 33.543c-.555 6.807 4.514 12.772 11.318 13.327 6.805.554 12.773-4.51 13.328-11.317l7.429-91.084h7.002l7.429 91.084c.555 6.808 6.523 11.872 13.328 11.317 6.805-.555 11.873-6.52 11.318-13.327l-8.53-104.591v-44.237c4.47 9.298 8.452 28.029 6.396 63.165a8.001 8.001 0 0 0 7.519 8.454zm-44.762-87.038h7.6l1.9 7.5-.289.456a8.438 8.438 0 0 1-5.412 1.962 8.438 8.438 0 0 1-5.408-1.958l-.292-.46 1.901-7.5zM55.77 225.876v-3.815a8.001 8.001 0 0 0 5.217-7.972c-2.056-35.14 1.926-53.871 6.396-63.168v44.241l-4.697 57.59v-26.876H55.77zm38.659-25.871-9.5-12 5.471-40.321c1.297.486 2.662.74 4.027.739h.008a11.46 11.46 0 0 0 4.021-.74l5.473 40.322-9.5 12zM94.429 121.131c12.428 0 22.5-10.073 22.5-22.5 0-1.674-.188-3.304-.536-4.874H72.465a22.552 22.552 0 0 0-.536 4.874c0 12.426 10.074 22.5 22.5 22.5zm14.035-14.446c-2.909 4.711-8.104 7.868-14.035 7.868s-11.126-3.157-14.035-7.868h28.07zM166.211 94.876c3.033 0 5.5-2.467 5.5-5.5s-2.467-5.5-5.5-5.5-5.5 2.467-5.5 5.5c0 1.176.374 2.264 1.005 3.159-2.497 2.036-6.143 4.174-10.605 4.335-6.332.237-12.784-3.517-19.132-11.134-6.491-7.789-13.187-11.513-19.929-11.08-10.112.658-16.42 10.436-16.684 10.852l1.689 1.07c.059-.093 6.017-9.334 15.125-9.926 6.062-.386 12.204 3.093 18.263 10.364 6.563 7.876 13.327 11.864 20.114 11.864.215 0 .431-.004.646-.012 5.143-.192 9.23-2.632 11.968-4.913a5.465 5.465 0 0 0 3.04.921zm-3.5-5.5c0-1.93 1.57-3.5 3.5-3.5s3.5 1.57 3.5 3.5-1.57 3.5-3.5 3.5-3.5-1.57-3.5-3.5zM87.459 87.152l1.891-.651c-.036-.104-3.536-10.527 1.688-18.012 3.475-4.979 10.035-7.603 19.497-7.797 10.575-.218 18.05-3.185 22.219-8.82 3.062-4.139 3.707-8.857 3.634-12.42a5.47 5.47 0 0 0 2.617-1.797 5.506 5.506 0 0 0-.864-7.73 5.506 5.506 0 0 0-7.73.864 5.462 5.462 0 0 0-1.169 4.043 5.462 5.462 0 0 0 2.033 3.686 5.446 5.446 0 0 0 3.102 1.174c.035 3.215-.569 7.394-3.23 10.99-3.781 5.111-10.729 7.806-20.652 8.009-10.137.208-17.235 3.12-21.096 8.653-5.801 8.31-2.101 19.342-1.94 19.808zm43.769-52.542a3.477 3.477 0 0 1 .744-2.573 3.493 3.493 0 0 1 2.738-1.313c.766 0 1.538.25 2.182.764a3.478 3.478 0 0 1 1.293 2.346 3.477 3.477 0 0 1-.744 2.573 3.474 3.474 0 0 1-2.346 1.293 3.462 3.462 0 0 1-2.573-.744 3.478 3.478 0 0 1-1.294-2.346zM47.356 23.829a5.507 5.507 0 0 0-7.648-1.417 5.462 5.462 0 0 0-2.292 3.531 5.5 5.5 0 0 0 5.417 6.499 5.47 5.47 0 0 0 5.139-3.592c3.086.9 6.905 2.69 9.573 6.276 3.794 5.1 4.358 12.532 1.675 22.087-2.741 9.762-2.013 17.399 2.162 22.699 5.663 7.188 15.697 7.606 17.952 7.606.242 0 .395-.005.442-.006l-.076-1.998c-.109.006-11.099.332-16.748-6.839-3.757-4.77-4.366-11.808-1.807-20.92 2.859-10.184 2.187-18.198-1.997-23.822-3.069-4.125-7.397-6.119-10.825-7.084a5.46 5.46 0 0 0-.967-3.02zm-1.091 3.753a3.479 3.479 0 0 1-1.458 2.247 3.503 3.503 0 0 1-4.867-.901 3.477 3.477 0 0 1-.558-2.62 3.476 3.476 0 0 1 1.458-2.247 3.505 3.505 0 0 1 4.867.901c.53.77.728 1.701.558 2.62zM142.028 55.188l-2.247-1.297-1.229 2.129 2.25 1.299c-.164.353-.312.713-.446 1.081l-2.51-.673-.636 2.375 2.51.672c-.066.382-.123.767-.158 1.16h-2.593v2.459h2.593c.034.392.091.777.157 1.16l-2.51.672.636 2.375 2.51-.673c.135.368.282.728.447 1.081l-2.25 1.299 1.229 2.129 2.247-1.297c.225.32.458.633.709.932l-1.831 1.831 1.739 1.739 1.831-1.831c.299.251.612.484.932.709l-1.297 2.247 2.129 1.229 1.299-2.25c.353.164.713.312 1.081.447l-.673 2.51 2.375.636.672-2.51c.382.066.767.123 1.159.158v2.593h2.459v-2.593c.392-.034.777-.091 1.159-.157l.672 2.51 2.375-.636-.673-2.51a13.64 13.64 0 0 0 1.081-.447l1.299 2.25 2.129-1.229-1.297-2.247c.32-.225.633-.458.932-.709l1.831 1.831 1.739-1.739-1.831-1.831c.251-.299.484-.612.709-.932l2.247 1.297 1.229-2.129-2.25-1.299c.164-.353.312-.713.447-1.081l2.51.673.636-2.375-2.51-.672c.066-.382.123-.767.157-1.159h2.593v-2.459h-2.593a13.401 13.401 0 0 0-.158-1.159l2.51-.672-.636-2.375-2.51.673a13.64 13.64 0 0 0-.447-1.081l2.25-1.299-1.229-2.129-2.247 1.297c-.225-.32-.459-.633-.709-.932l1.831-1.831-1.739-1.739-1.831 1.831a13.689 13.689 0 0 0-.932-.709l1.297-2.247-2.129-1.229-1.299 2.25a14.027 14.027 0 0 0-1.081-.447l.673-2.51-2.375-.636-.672 2.51a13.77 13.77 0 0 0-1.16-.157v-2.593h-2.459v2.593c-.392.034-.777.091-1.16.158l-.672-2.51-2.375.636.673 2.51c-.368.135-.728.282-1.081.446l-1.299-2.25-2.129 1.229 1.297 2.247c-.32.225-.633.459-.932.709l-1.831-1.831-1.739 1.739 1.831 1.831c-.248.296-.481.609-.706.929zm11.355-3.09c6.111 0 11.065 4.954 11.065 11.065s-4.954 11.065-11.065 11.065-11.065-4.954-11.065-11.065 4.954-11.065 11.065-11.065z" fill="#ffffff" class="fill-000000"></path><circle cx="153.383" cy="57.739" r="2.82" fill="#ffffff" class="fill-000000"></circle><circle cx="153.383" cy="68.587" r="2.82" fill="#ffffff" class="fill-000000"></circle><circle cx="147.959" cy="63.163" r="2.82" fill="#ffffff" class="fill-000000"></circle><circle cx="158.807" cy="63.163" r="2.82" fill="#ffffff" class="fill-000000"></circle><path d="m14.945 103.999.892 1.546 1.631-.942c.163.232.333.459.515.677l-1.329 1.329 1.262 1.262 1.329-1.329c.217.182.444.351.677.515l-.942 1.631 1.546.892.943-1.633c.256.119.518.226.785.324l-.488 1.822 1.724.462.488-1.822c.277.048.557.089.842.114v1.882h1.785v-1.882c.285-.025.564-.066.842-.114l.488 1.822 1.724-.462-.488-1.822c.267-.098.529-.205.785-.324l.943 1.633 1.546-.892-.942-1.631c.232-.163.459-.333.677-.515l1.329 1.329 1.262-1.262-1.329-1.329c.182-.217.351-.444.515-.677l1.631.942.892-1.546-1.633-.943c.119-.256.226-.518.324-.785l1.822.488.462-1.724-1.822-.488c.048-.277.089-.557.114-.842h1.882V97.92h-1.882a10.145 10.145 0 0 0-.114-.842l1.822-.488-.462-1.724-1.822.488a10.187 10.187 0 0 0-.324-.785l1.633-.943-.892-1.546-1.631.942a10.225 10.225 0 0 0-.515-.677l1.329-1.329-1.262-1.262-1.329 1.329a10.288 10.288 0 0 0-.676-.515l.942-1.631-1.546-.892-.943 1.633a10.187 10.187 0 0 0-.785-.324l.488-1.822-1.724-.462-.488 1.822a10.088 10.088 0 0 0-.842-.114v-1.883h-1.785v1.883c-.285.025-.564.066-.842.114l-.488-1.822-1.724.462.488 1.822c-.267.098-.529.205-.785.324l-.943-1.633-1.546.892.942 1.631a9.95 9.95 0 0 0-.676.515l-1.329-1.329-1.262 1.262 1.329 1.329c-.182.217-.351.444-.515.677l-1.631-.942-.892 1.546 1.633.943c-.119.256-.226.518-.324.785l-1.822-.488-.462 1.724 1.822.488c-.048.277-.089.557-.114.842h-1.882v1.785h1.882c.025.285.066.564.114.842l-1.822.488.462 1.724 1.822-.488c.098.267.205.529.324.785l-1.635.943zm2.734-5.186a8.032 8.032 0 1 1 16.064 0 8.032 8.032 0 0 1-16.064 0z" fill="#ffffff" class="fill-000000"></path><circle cx="25.711" cy="94.876" r="2.047" fill="#ffffff" class="fill-000000"></circle><circle cx="25.711" cy="102.75" r="2.047" fill="#ffffff" class="fill-000000"></circle><circle cx="21.774" cy="98.813" r="2.047" fill="#ffffff" class="fill-000000"></circle><circle cx="29.648" cy="98.813" r="2.047" fill="#ffffff" class="fill-000000"></circle><path d="M48.993 40.157H4.091v33.106h44.902V40.157zm-1.675 31.431H5.765V41.832h41.553v29.756zM0 74.404h53.083v3.805H0zM44.555 92.96h2v10.833h-2zM48.357 85.793h2v18h-2zM52.159 88.96h2v14.833h-2zM55.961 85.793h2v18h-2zM59.763 91.293h2v12.5h-2zM42.617 105.126H63.7v.667H42.617zM75.474 46.342a2.94 2.94 0 0 0 1.076.46v4.353h.944v-4.353a2.965 2.965 0 0 0 1.076-.46v4.149h7.765l-2.761-9.863h-1.691c.769-2.618 1.226-5.876 1.226-9.409 0-8.635-6.086-15.635-6.086-15.635s-6.086 7-6.086 15.635c0 3.533.457 6.791 1.226 9.409H70.47l-2.761 9.863h7.765v-4.149zM73.557 30.62a3.465 3.465 0 1 1 6.93 0 3.465 3.465 0 0 1-6.93 0zM71.6 55.693c0 2.161 5.422 11.374 5.422 11.374s5.422-9.213 5.422-11.374-2.616-3.64-2.616-3.64v2.957c0 .967-.91 2.881-2.806 4.398-1.896-1.517-2.806-3.431-2.806-4.398v-2.957s-2.616 1.479-2.616 3.64z" fill="#ffffff" class="fill-000000"></path><circle cx="77.022" cy="30.62" r="1.493" fill="#ffffff" class="fill-000000"></circle><path d="M108.637 45.585h12.315c1.1 0 2-.9 2-2v-28.25c0-1.1-.9-2-2-2h-12.315c-1.1 0-2 .9-2 2v28.25c0 1.1.9 2 2 2zm-.301-27.125h12.917v22h-12.917v-22z" fill="#ffffff" class="fill-000000"></path><circle cx="159.878" cy="28.343" r="1.633" fill="#ffffff" class="fill-000000"></circle><path d="m169.771 37.971.749.749a14.822 14.822 0 0 0 4.232-10.377c0-4.168-1.725-7.939-4.497-10.642l-.749.749a13.77 13.77 0 0 1 4.186 9.894 13.76 13.76 0 0 1-3.921 9.627zM149.985 37.971a13.766 13.766 0 0 1-3.922-9.628c0-3.876 1.607-7.382 4.186-9.894l-.749-.749a14.825 14.825 0 0 0-4.497 10.642 14.82 14.82 0 0 0 4.232 10.377l.75-.748z" fill="#ffffff" class="fill-000000"></path><path d="m166.773 34.973.749.749a10.593 10.593 0 0 0-.265-15.023l-.749.749a9.544 9.544 0 0 1 2.947 6.896 9.53 9.53 0 0 1-2.682 6.629zM152.234 35.722l.749-.749a9.538 9.538 0 0 1-2.683-6.63 9.548 9.548 0 0 1 2.947-6.896l-.749-.749a10.598 10.598 0 0 0-3.258 7.644 10.598 10.598 0 0 0 2.994 7.38z" fill="#ffffff" class="fill-000000"></path><path d="M155.977 31.979a5.318 5.318 0 0 1-1.44-3.636c0-1.54.659-2.925 1.705-3.901l-.749-.749a6.368 6.368 0 0 0-.264 9.034l.748-.748zM163.779 31.979l.749.749a6.37 6.37 0 0 0 1.751-4.384 6.38 6.38 0 0 0-2.015-4.65l-.749.749a5.322 5.322 0 0 1 1.705 3.901 5.323 5.323 0 0 1-1.441 3.635zM147.961 110.668a2.378 2.378 0 0 0 2.32-1.875h2.985a2.378 2.378 0 0 0 2.32 1.875c1.31 0 2.375-1.065 2.375-2.375s-1.065-2.375-2.375-2.375a2.378 2.378 0 0 0-2.32 1.875h-2.985c-.231-1.07-1.182-1.875-2.32-1.875s-2.089.805-2.32 1.875h-2.985c-.231-1.07-1.182-1.875-2.32-1.875s-2.089.805-2.32 1.875h-2.985c-.231-1.07-1.182-1.875-2.32-1.875s-2.089.805-2.32 1.875h-2.985a2.378 2.378 0 0 0-2.32-1.875c-1.31 0-2.375 1.065-2.375 2.375s1.065 2.375 2.375 2.375a2.378 2.378 0 0 0 2.32-1.875h2.985c.231 1.07 1.182 1.875 2.32 1.875s2.089-.805 2.32-1.875h2.985c.231 1.07 1.182 1.875 2.32 1.875s2.089-.805 2.32-1.875h2.985a2.378 2.378 0 0 0 2.32 1.875zm-1.375-2.375c0-.758.617-1.375 1.375-1.375s1.375.617 1.375 1.375-.617 1.375-1.375 1.375-1.375-.616-1.375-1.375zm7.625 0c0-.758.617-1.375 1.375-1.375s1.375.617 1.375 1.375-.617 1.375-1.375 1.375-1.375-.616-1.375-1.375zm-12.5 0c0 .758-.617 1.375-1.375 1.375s-1.375-.617-1.375-1.375.617-1.375 1.375-1.375 1.375.617 1.375 1.375zm-7.625 0c0 .758-.617 1.375-1.375 1.375s-1.375-.617-1.375-1.375.617-1.375 1.375-1.375 1.375.617 1.375 1.375zm-7.625 0c0 .758-.617 1.375-1.375 1.375s-1.375-.617-1.375-1.375.617-1.375 1.375-1.375 1.375.617 1.375 1.375zM16.798 29.67a2.734 2.734 0 0 0 2.73-2.731c0-.576-.182-1.11-.488-1.551l5.295-5.339c.438.298.965.474 1.534.474a2.732 2.732 0 0 0 2.68-2.23h3.712a2.731 2.731 0 0 0 2.68 2.23 2.734 2.734 0 0 0 2.731-2.73c0-.535-.16-1.031-.427-1.452l5.146-4.766a2.705 2.705 0 0 0 1.622.547c.609 0 1.167-.208 1.622-.547l5.146 4.767a2.704 2.704 0 0 0-.427 1.452c0 1.505 1.225 2.73 2.731 2.73s2.731-1.225 2.731-2.73a2.734 2.734 0 0 0-2.731-2.731c-.61 0-1.167.208-1.622.547l-5.146-4.767c.267-.422.427-.917.427-1.452a2.734 2.734 0 0 0-2.73-2.731 2.734 2.734 0 0 0-2.731 2.731c0 .535.16 1.031.427 1.452l-5.146 4.766a2.705 2.705 0 0 0-1.622-.547 2.731 2.731 0 0 0-2.68 2.231H28.55a2.732 2.732 0 0 0-2.68-2.231 2.734 2.734 0 0 0-2.73 2.731c0 .576.182 1.11.488 1.551l-5.295 5.339a2.72 2.72 0 0 0-1.534-.474 2.734 2.734 0 0 0-2.731 2.73 2.732 2.732 0 0 0 2.73 2.731zm1.731-2.731c0 .955-.776 1.731-1.73 1.731a1.732 1.732 0 0 1-1.731-1.731c0-.954.776-1.73 1.731-1.73.953 0 1.73.776 1.73 1.73zm5.61-9.146c0-.955.776-1.731 1.73-1.731.955 0 1.731.776 1.731 1.731 0 .954-.776 1.73-1.731 1.73a1.732 1.732 0 0 1-1.73-1.73zm9.072 0c0-.955.776-1.731 1.731-1.731s1.731.776 1.731 1.731a1.732 1.732 0 0 1-3.462 0zm9.072-8.403c0-.955.776-1.731 1.731-1.731.954 0 1.73.776 1.73 1.731 0 .954-.776 1.73-1.73 1.73a1.732 1.732 0 0 1-1.731-1.73zm10.803 6.672c.955 0 1.731.776 1.731 1.731a1.732 1.732 0 0 1-3.462 0c0-.954.777-1.731 1.731-1.731zM19.254 59.613l-1.809 1.045 1.486 2.575 1.811-1.045c.228.261.474.506.735.735l-1.045 1.811 2.575 1.487 1.045-1.809c.326.112.66.206 1.005.273v2.085h2.973v-2.085a7.559 7.559 0 0 0 1.005-.273l1.045 1.809 2.575-1.487-1.045-1.811c.261-.228.506-.474.735-.735l1.811 1.045 1.486-2.575-1.809-1.045c.112-.326.206-.66.273-1.005h2.085v-2.973h-2.085a7.559 7.559 0 0 0-.273-1.005l1.809-1.045-1.486-2.575-1.811 1.046a7.726 7.726 0 0 0-.735-.735l1.045-1.811-2.575-1.486-1.045 1.809a7.477 7.477 0 0 0-1.005-.273v-2.085h-2.973v2.085a7.559 7.559 0 0 0-1.005.273l-1.045-1.809-2.575 1.486 1.045 1.811a7.844 7.844 0 0 0-.735.735l-1.811-1.045-1.486 2.575 1.809 1.045c-.112.326-.206.66-.273 1.005h-2.085v2.973h2.085c.067.344.162.678.273 1.004zm7.288-8.211a5.72 5.72 0 1 1 0 11.44 5.72 5.72 0 0 1 0-11.44z" fill="#ffffff" class="fill-000000"></path><circle cx="26.542" cy="57.122" r="1.745" fill="#ffffff" class="fill-000000"></circle><path d="M94.17 44.71c0 1.31 1.065 2.375 2.375 2.375s2.375-1.065 2.375-2.375a2.378 2.378 0 0 0-1.875-2.32v-2.985c1.07-.231 1.875-1.182 1.875-2.32s-.805-2.089-1.875-2.32V31.78c1.07-.231 1.875-1.182 1.875-2.32s-.805-2.089-1.875-2.32v-2.985c1.07-.231 1.875-1.182 1.875-2.32s-.805-2.089-1.875-2.32V16.53a2.378 2.378 0 0 0 1.875-2.32c0-1.31-1.065-2.375-2.375-2.375S94.17 12.9 94.17 14.21c0 1.138.805 2.089 1.875 2.32v2.985c-1.07.231-1.875 1.182-1.875 2.32s.805 2.089 1.875 2.32v2.985c-1.07.231-1.875 1.182-1.875 2.32s.805 2.089 1.875 2.32v2.985c-1.07.231-1.875 1.182-1.875 2.32s.805 2.089 1.875 2.32v2.985a2.377 2.377 0 0 0-1.875 2.32zm2.375 1.375c-.758 0-1.375-.617-1.375-1.375s.617-1.375 1.375-1.375 1.375.617 1.375 1.375-.617 1.375-1.375 1.375zm0-10.375c.758 0 1.375.617 1.375 1.375s-.617 1.375-1.375 1.375-1.375-.617-1.375-1.375.616-1.375 1.375-1.375zm0-7.625c.758 0 1.375.617 1.375 1.375s-.617 1.375-1.375 1.375-1.375-.617-1.375-1.375.616-1.375 1.375-1.375zm0-7.625c.758 0 1.375.617 1.375 1.375s-.617 1.375-1.375 1.375-1.375-.617-1.375-1.375.616-1.375 1.375-1.375zm1.375-6.25c0 .758-.617 1.375-1.375 1.375s-1.375-.617-1.375-1.375.617-1.375 1.375-1.375 1.375.616 1.375 1.375zM56.163 124.291l1.356-3.412 3.256 1.295 1.011-2.543-3.256-1.295 1.375-3.457-2.587-1.029-1.375 3.458-3.257-1.295-1.011 2.543 3.257 1.294-1.357 3.413zM127.729 122.978l3.091-1.983 1.892 2.949 2.303-1.478-1.892-2.949 3.131-2.01-1.504-2.343-3.131 2.01-1.893-2.95-2.303 1.478 1.893 2.949-3.09 1.984zM122.729 71.228l3.091-1.983 1.892 2.949 2.303-1.478-1.892-2.949 3.131-2.01-1.504-2.343-3.131 2.01-1.893-2.95-2.303 1.478 1.893 2.949-3.09 1.984zM80.818 8.754l3.09-1.983 1.893 2.949 2.303-1.478-1.893-2.949 3.132-2.009L87.839.94l-3.131 2.01L82.815 0l-2.303 1.478 1.893 2.95-3.091 1.983z" fill="#ffffff" class="fill-000000"></path></svg>