<?xml version="1.0" encoding="UTF-8" standalone="no"?>
<svg
   xmlns:dc="http://purl.org/dc/elements/1.1/"
   xmlns:cc="http://creativecommons.org/ns#"
   xmlns:rdf="http://www.w3.org/1999/02/22-rdf-syntax-ns#"
   xmlns:svg="http://www.w3.org/2000/svg"
   xmlns="http://www.w3.org/2000/svg"
   id="svg2"
   viewBox="0 0 700 700"
   version="1.1"
   height="700pt"
   width="700pt">
  <metadata
     id="metadata12">
    <rdf:RDF>
      <cc:Work
         rdf:about="">
        <dc:format>image/svg+xml</dc:format>
        <dc:type
           rdf:resource="http://purl.org/dc/dcmitype/StillImage" />
        <dc:title></dc:title>
      </cc:Work>
    </rdf:RDF>
  </metadata>
  <defs
     id="defs10" />
  <g
     transform="translate(0,77.118644)"
     id="g4">
    <path
       style="fill-rule:evenodd"
       id="path6"
       d="m 316.59,517.86 -156.74,0 0,-215.38 c 6.0352,1.9492 12.16,3.3672 18.316,4.2695 l 0,188.21 115.52,0 z m 127.45,0 129.75,0 0,-129.77 -18.316,18.32 0,88.555 -88.539,0 z m 129.75,-256.64 0,-260.78 -413.93,0 0,86.074 c 5.9727,-1.9258 12.102,-3.3594 18.316,-4.2852 l 0,-58.895 377.3,0 0,256.2 z m -98.98,98.988 -237.93,0 c -8.0898,0 -14.438,-6.3438 -14.438,-14.438 0,-8.0898 6.3477,-14.438 14.438,-14.438 l 259.88,0 c 2.0625,0 4.0078,0.41406 5.7656,1.1602 z m -200.72,57.75 -37.203,0 c -8.0898,0 -14.438,-6.3438 -14.438,-14.438 0,-8.0898 6.3477,-14.438 14.438,-14.438 l 209.05,0 -28.871,28.875 -73.496,0 -18.086,-18.074 c -9.1836,-9.1836 -24.18,-9.1836 -33.344,0.008 z m 13.508,-288.75 209.16,0 c 8.0938,0 14.438,-6.3438 14.438,-14.438 0,-8.0898 -6.3438,-14.438 -14.438,-14.438 l -238.63,0 c 11.801,7.9297 21.684,17.773 29.465,28.875 z m 20.363,57.75 188.8,0 c 8.0938,0 14.438,-6.3438 14.438,-14.438 0,-8.0898 -6.3438,-14.438 -14.438,-14.438 l -194.56,0 c 3.1484,9.3203 5.0938,19.031 5.7578,28.875 z m -11.457,57.75 200.26,0 c 8.0938,0 14.438,-6.3438 14.438,-14.438 0,-8.0898 -6.3438,-14.438 -14.438,-14.438 l -190.54,0 c -1.8789,9.832 -5.0938,19.543 -9.7148,28.875 z m -20.387,28.875 220.64,0 c 8.0938,0 14.438,6.3477 14.438,14.438 0,8.0938 -6.3438,14.438 -14.438,14.438 l -259.88,0 c -1.7344,0 -3.3906,-0.28906 -4.9219,-0.82812 16.453,-5.7031 31.648,-15.18 44.152,-28.047 z m -166.93,-128.89 c 27.52,-47.645 88.68,-64.031 136.34,-36.516 47.66,27.527 64.031,88.68 36.527,136.32 -23.691,41.035 -72.355,58.883 -115.86,45.441 l -67.938,117.67 c -6.1133,10.578 -19.699,14.246 -30.328,8.1289 -10.609,-6.1289 -14.223,-19.742 -8.125,-30.328 l 67.941,-117.66 c -33.375,-30.941 -42.262,-82.004 -18.559,-123.06 z m 53.723,110.19 c 31.273,18.055 71.363,7.3125 89.418,-23.961 18.059,-31.25 7.3086,-71.359 -23.957,-89.395 -31.254,-18.062 -71.359,-7.3164 -89.398,23.934 -18.078,31.258 -7.3125,71.363 23.938,89.422 z m 474.89,35.82 c 3.168,3.168 3.168,8.4102 0,11.578 l -251.69,251.73 c -3.1602,3.168 -8.3906,3.168 -11.562,-0.004 l -101.59,-101.57 c -3.168,-3.1562 -3.168,-8.3906 0,-11.559 l 30.09,-30.113 c 3.1562,-3.1641 8.3906,-3.1641 11.559,0.004 l 49.059,49.039 c 9.1562,9.1875 24.148,9.1875 33.34,-0.004 l 199.15,-199.17 c 3.1562,-3.168 8.3906,-3.168 11.562,0.004 z" />
  </g>
</svg>
