<svg width="513" height="513" viewBox="0 0 513 513" fill="none" xmlns="http://www.w3.org/2000/svg">
<path d="M256.987 55.8584C229.987 55.8584 210.569 70.1454 199.354 88.0884C189.324 104.135 185.151 122.748 184.337 139.05C153.729 154.185 119.822 169.444 92.5221 185.044C78.2021 193.227 65.7171 201.458 56.3191 210.304C46.9211 219.148 39.9871 229.108 39.9871 240.858C39.9871 245.858 42.4271 249.933 45.1771 252.923C47.9311 255.913 51.2311 258.235 54.9891 260.403C62.5041 264.739 71.9791 268.353 82.4011 271.479C97.8841 276.125 115.224 279.579 130.301 281.056C115.305 306.896 95.3481 330.63 77.8541 353.371C57.6371 379.653 39.9871 404.858 39.9871 432.858C39.9871 436.858 39.9431 439.981 40.2971 443.118C40.6521 446.255 41.5531 450.171 44.7071 453.274C47.8621 456.378 51.7241 457.212 54.8701 457.554C58.0161 457.899 61.1851 457.858 65.2501 457.858H176.792C184.889 457.858 190.818 458.35 196.917 454.428C203.017 450.508 205.241 445.153 209.587 437.153L209.675 436.993L209.755 436.827C209.755 436.827 219.478 417.057 231.079 397.439C236.879 387.631 243.176 377.863 248.653 370.941C251.393 367.481 253.957 364.737 255.803 363.187C256.367 362.715 256.623 362.627 256.987 362.427C257.35 362.627 257.607 362.715 258.171 363.187C260.017 364.737 262.581 367.481 265.321 370.941C270.798 377.863 277.095 387.631 282.895 397.439C294.495 417.057 304.219 436.826 304.219 436.826L304.299 436.991L304.387 437.151C308.733 445.151 310.937 450.474 316.997 454.405C323.055 458.335 328.971 457.855 336.954 457.855H448.987C452.987 457.855 456.107 457.898 459.231 457.551C462.354 457.204 466.229 456.341 469.351 453.219C472.471 450.097 473.335 446.222 473.681 443.099C474.029 439.977 473.987 436.855 473.987 432.855C473.987 404.855 456.337 379.65 436.12 353.367C418.627 330.627 398.67 306.893 383.673 281.052C398.75 279.574 416.09 276.122 431.573 271.476C441.995 268.351 451.47 264.736 458.985 260.401C462.743 258.233 466.043 255.911 468.795 252.921C471.548 249.931 473.987 245.856 473.987 240.856C473.987 229.106 467.053 219.146 457.655 210.302C448.257 201.456 435.772 193.225 421.452 185.042C394.152 169.442 360.245 154.182 329.637 139.048C328.823 122.748 324.649 104.133 314.62 88.0884C303.405 70.1444 283.987 55.8584 256.987 55.8584Z" fill="#456587"/>
</svg>
