<?xml version="1.0" encoding="utf-8"?>
<svg viewBox="0 0 162.042 315.645" style="enable-background:new 0 0 162.042 315.645;" xmlns="http://www.w3.org/2000/svg">
  <g>
    <path d="M35.481,131.965l-13.333,50.461l-2.043,7.734c-0.345,0.919-0.588,1.869-0.71,2.837c-0.003,0.019-0.006,0.039-0.01,0.058   c-0.006,0.05-0.011,0.101-0.016,0.151c-0.044,0.326-0.064,0.651-0.066,0.974c-0.004,0.124-0.002,0.247-0.002,0.371   c0,0.008,0,0.015,0.001,0.023c0.001,2.716,0.873,5.451,2.69,7.745l24.931,31.492l-31.189,32.803   c-4.757,5.003-4.558,12.915,0.445,17.672c2.419,2.3,5.518,3.441,8.611,3.441c3.305,0,6.604-1.303,9.061-3.887l38.667-40.667   c4.289-4.511,4.605-11.491,0.742-16.372L60.884,211.17l1.517,0.401c0.938,0.248,1.88,0.304,2.79,0.207l10.419,13.161   c4.761,6.015,4.366,14.742-0.919,20.301l-1.54,1.62l-9.905,54.029c-1.245,6.79,3.25,13.304,10.041,14.549   c0.762,0.14,1.521,0.208,2.269,0.207c5.917,0,11.175-4.22,12.28-10.248l11-60c0.522-2.85,0.039-5.792-1.368-8.324l-22.913-41.244   l13.193-49.932c13.757-1.47,45.99-9.478,72.994-50.884c2.413-3.701,1.37-8.657-2.331-11.071c-3.702-2.416-8.657-1.37-11.071,2.331   c-27.172,41.663-58.959,43.888-64.607,43.943l-35.423-9.36c-5.474-3.922-30.14-23.704-31.314-62.301   c-0.134-4.417-3.836-7.901-8.239-7.753c-4.416,0.134-7.888,3.823-7.753,8.239C1.267,100.599,25.297,123.914,35.481,131.965z    M47.754,196.603l-6.02-14.072l15.856-37.475c1.125,0.81,2.375,1.413,3.692,1.77l0.002,0c0,0,0.004,0.001,0.006,0.002   c1.315,0.357,2.697,0.469,4.074,0.34l-5.294,40.346L47.754,196.603z M61.004,133.364l3.668,0.997l3.666,0.996l-0.133,7.736   l-0.398,0.364c-1.854,0.849-3.876,0.978-5.738,0.474c-1.86-0.507-3.536-1.64-4.705-3.308l-0.161-0.521L61.004,133.364z" style="fill: rgb(255, 255, 255);"/>
    <path d="M69.729,123.41c12.35,1.391,23.486-7.492,24.876-19.841c1.391-12.349-7.491-23.486-19.841-24.877   c-12.348-1.391-23.486,7.492-24.877,19.841C48.497,110.882,57.381,122.019,69.729,123.41z M88.489,102.021   c0,0-6.287,19.564-21.908,5.93C66.581,107.951,80.674,108.651,88.489,102.021z" style="fill: rgb(255, 255, 255);"/>
    <path d="M92.39,47.396l25.808,17.174l5.355-8.047l8.672,5.771l22.345-33.578L111.418,0L89.073,33.578l8.672,5.771L92.39,47.396z    M101.491,41.842l18.315,12.188l-2.863,4.301L98.629,46.143L101.491,41.842z" style="fill: rgb(255, 255, 255);"/>
  </g>
</svg>