<svg width="391" height="206" viewBox="0 0 391 206" fill="none" xmlns="http://www.w3.org/2000/svg">
<g filter="url(#filter0_d_1348_9)">
<path d="M192.766 63.1533L132.278 68.1301V75.9931H144.016C149.782 77.2069 151.782 81.1691 151.855 91.0641L151.45 172.285C151.45 185.536 149.933 185.984 145.736 185.984H137.977V192.773H209.058V185.984H202.07C195.124 185.574 193.495 181.979 193.684 170.909L193.016 96.4358C198.442 88.9706 200.852 87.7285 209.683 85.4799C209.683 85.4799 212.827 84.7649 215.507 84.7649C218.187 84.7649 220.641 85.4799 220.641 85.4799C224.921 87.0798 229.54 91.4169 230.24 92.2238C230.941 93.0307 234.16 98.4399 234.402 102.013V176.283C234.402 179.865 235.676 185.984 230.622 185.984H222.236V192.773H292.718V185.984H286.081C277.457 184.874 276.547 182.346 275.949 172.914L274.976 95.977C266.413 64.7936 248.374 59.162 222.288 67.4472C210.1 71.3182 203.384 77.7037 192.766 85.4799V63.1533Z" fill="#374BA3"/>
<path d="M192.766 63.1533L132.278 68.1301V75.9931H144.016C149.782 77.2069 151.782 81.1691 151.855 91.0641L151.45 172.285C151.45 185.536 149.933 185.984 145.736 185.984H137.977V192.773H209.058V185.984H202.07C195.124 185.574 193.495 181.979 193.684 170.909L193.016 96.4358C198.442 88.9706 200.852 87.7285 209.683 85.4799C209.683 85.4799 212.827 84.7649 215.507 84.7649C218.187 84.7649 220.641 85.4799 220.641 85.4799C224.921 87.0798 229.54 91.4169 230.24 92.2238C230.941 93.0307 234.16 98.4399 234.402 102.013V176.283C234.402 179.865 235.676 185.984 230.622 185.984H222.236V192.773H292.718V185.984H286.081C277.457 184.874 276.547 182.346 275.949 172.914L274.976 95.977C266.413 64.7936 248.374 59.162 222.288 67.4472C210.1 71.3182 203.384 77.7037 192.766 85.4799V63.1533Z" stroke="#374BA3"/>
</g>
<path d="M365.173 21.5153C365.173 33.0332 355.919 42.3628 344.513 42.3628C333.107 42.3628 323.853 33.0332 323.853 21.5153C323.853 9.99732 333.107 0.667725 344.513 0.667725C355.919 0.667725 365.173 9.99732 365.173 21.5153Z" fill="#E7B41C" stroke="#E7B41C"/>
<g filter="url(#filter1_d_1348_9)">
<path d="M367.006 62.084L302.605 68.5496V76.0484H313.964C318.922 76.0484 323.367 79.5869 323.367 86.4954V168.218C323.367 183.552 323.367 184.93 317.725 184.93H308.323V193.325H386.088V184.93H379.529C367.006 184.93 367.006 180.687 367.006 167.296V62.084Z" fill="#374BA3"/>
<path d="M367.006 62.084L302.605 68.5496V76.0484H313.964C318.922 76.0484 323.367 79.5869 323.367 86.4954V168.218C323.367 183.552 323.367 184.93 317.725 184.93H308.323V193.325H386.088V184.93H379.529C367.006 184.93 367.006 180.687 367.006 167.296V62.084Z" stroke="#374BA3"/>
</g>
<g filter="url(#filter2_d_1348_9)">
<path d="M122.728 179.614L118.163 174.959C111.207 179.468 107.35 182.05 98.3815 184.179C91.1806 185.443 87.1439 185.315 79.9423 184.179C73.4018 182.277 70.0017 180.808 64.9045 176.75C58.6384 170.948 55.6752 167.36 51.6569 160.19C47.3536 152.371 46.0156 147.816 44.8541 139.513C43.597 126.423 43.6305 119.771 44.8541 108.99C45.7352 100.763 46.8901 96.75 49.8667 90.4612C54.586 82.3459 57.7453 78.9732 66.624 73.3508C71.3124 71.8178 73.9006 71.2381 79.6974 71.8178C79.6974 71.8178 82.853 72.7381 85.0444 74.4325C87.2358 76.1269 86.1802 77.6284 85.9395 77.9297C84.5319 79.6925 83.9155 85.5576 85.0444 86.8808C90.0302 96.3829 93.9281 99.9001 103.036 102.635C106.736 103.671 108.825 103.754 112.524 102.635C116.162 100.651 117.603 99.0393 119.506 95.5633C120.395 91.3244 120.298 89.118 119.506 85.3591L117 81.2416C109.86 74.6251 105.23 71.6597 96.1438 67.3675C88.7893 63.8932 83.4842 63.6137 82.7629 63.3429C82.0416 63.0721 68.655 61.7369 59.3051 64.689C27.2579 74.4325 12.3131 89.8991 5.82707 124.744C5.43282 124.749 4.29666 138.385 5.03051 145.625C9.38412 180.331 37.6036 191.25 37.6036 191.25C37.6036 191.25 42.8396 194.146 49.8664 195.636C54.8455 196.692 64.5702 197.894 72.0651 197.247C79.5648 196.97 83.7583 196.378 91.2203 194.652C96.8937 193.384 99.9573 192.48 105.184 190.355C112.56 187.186 116.371 184.789 122.728 179.614Z" fill="#374BA3"/>
<path d="M122.728 179.614L118.163 174.959C111.207 179.468 107.35 182.05 98.3815 184.179C91.1806 185.443 87.1439 185.315 79.9423 184.179C73.4018 182.277 70.0017 180.808 64.9045 176.75C58.6384 170.948 55.6752 167.36 51.6569 160.19C47.3536 152.371 46.0156 147.816 44.8541 139.513C43.597 126.423 43.6305 119.771 44.8541 108.99C45.7352 100.763 46.8901 96.75 49.8667 90.4612C54.586 82.3459 57.7453 78.9732 66.624 73.3508C71.3124 71.8178 73.9006 71.2381 79.6974 71.8178C79.6974 71.8178 82.853 72.7381 85.0444 74.4325C87.2358 76.1269 86.1802 77.6284 85.9395 77.9297C84.5319 79.6925 83.9155 85.5576 85.0444 86.8808C90.0302 96.3829 93.9281 99.9001 103.036 102.635C106.736 103.671 108.825 103.754 112.524 102.635C116.162 100.651 117.603 99.0393 119.506 95.5633C120.395 91.3244 120.298 89.118 119.506 85.3591L117 81.2416C109.86 74.6251 105.23 71.6597 96.1438 67.3675C88.7893 63.8932 83.4842 63.6137 82.7629 63.3429C82.0416 63.0721 68.655 61.7369 59.3051 64.689C27.2579 74.4325 12.3131 89.8991 5.82707 124.744C5.43282 124.749 4.29666 138.385 5.03051 145.625C9.38412 180.331 37.6036 191.25 37.6036 191.25C37.6036 191.25 42.8396 194.146 49.8664 195.636C54.8455 196.692 64.5702 197.894 72.0651 197.247C79.5648 196.97 83.7583 196.378 91.2203 194.652C96.8937 193.384 99.9573 192.48 105.184 190.355C112.56 187.186 116.371 184.789 122.728 179.614Z" stroke="#374BA3"/>
</g>
<defs>
<filter id="filter0_d_1348_9" x="127.778" y="62.6106" width="169.44" height="138.662" filterUnits="userSpaceOnUse" color-interpolation-filters="sRGB">
<feFlood flood-opacity="0" result="BackgroundImageFix"/>
<feColorMatrix in="SourceAlpha" type="matrix" values="0 0 0 0 0 0 0 0 0 0 0 0 0 0 0 0 0 0 127 0" result="hardAlpha"/>
<feOffset dy="4"/>
<feGaussianBlur stdDeviation="2"/>
<feComposite in2="hardAlpha" operator="out"/>
<feColorMatrix type="matrix" values="0 0 0 0 0 0 0 0 0 0 0 0 0 0 0 0 0 0 0.25 0"/>
<feBlend mode="normal" in2="BackgroundImageFix" result="effect1_dropShadow_1348_9"/>
<feBlend mode="normal" in="SourceGraphic" in2="effect1_dropShadow_1348_9" result="shape"/>
</filter>
<filter id="filter1_d_1348_9" x="298.105" y="61.5312" width="92.4834" height="140.293" filterUnits="userSpaceOnUse" color-interpolation-filters="sRGB">
<feFlood flood-opacity="0" result="BackgroundImageFix"/>
<feColorMatrix in="SourceAlpha" type="matrix" values="0 0 0 0 0 0 0 0 0 0 0 0 0 0 0 0 0 0 127 0" result="hardAlpha"/>
<feOffset dy="4"/>
<feGaussianBlur stdDeviation="2"/>
<feComposite in2="hardAlpha" operator="out"/>
<feColorMatrix type="matrix" values="0 0 0 0 0 0 0 0 0 0 0 0 0 0 0 0 0 0 0.25 0"/>
<feBlend mode="normal" in2="BackgroundImageFix" result="effect1_dropShadow_1348_9"/>
<feBlend mode="normal" in="SourceGraphic" in2="effect1_dropShadow_1348_9" result="shape"/>
</filter>
<filter id="filter2_d_1348_9" x="0.289062" y="62.3074" width="127.18" height="143.622" filterUnits="userSpaceOnUse" color-interpolation-filters="sRGB">
<feFlood flood-opacity="0" result="BackgroundImageFix"/>
<feColorMatrix in="SourceAlpha" type="matrix" values="0 0 0 0 0 0 0 0 0 0 0 0 0 0 0 0 0 0 127 0" result="hardAlpha"/>
<feOffset dy="4"/>
<feGaussianBlur stdDeviation="2"/>
<feComposite in2="hardAlpha" operator="out"/>
<feColorMatrix type="matrix" values="0 0 0 0 0 0 0 0 0 0 0 0 0 0 0 0 0 0 0.25 0"/>
<feBlend mode="normal" in2="BackgroundImageFix" result="effect1_dropShadow_1348_9"/>
<feBlend mode="normal" in="SourceGraphic" in2="effect1_dropShadow_1348_9" result="shape"/>
</filter>
</defs>
</svg>
