<?xml version="1.0" encoding="utf-8"?>
<!-- Generator: Adobe Illustrator 16.0.0, SVG Export Plug-In . SVG Version: 6.00 Build 0)  -->
<svg version="1.2" baseProfile="tiny" id="Layer_1" xmlns="http://www.w3.org/2000/svg" xmlns:xlink="http://www.w3.org/1999/xlink"
	 x="0px" y="0px" width="400px" height="400px" viewBox="0 0 400 400" xml:space="preserve">
<g>
	<path d="M279.614,138.33c-4.493,0.49-8.474,1.051-11.938,1.685c-3.468,0.636-6.764,1.685-9.888,3.149
		c-3.127,1.465-6.226,3.468-9.302,6.006c-3.076,2.541-6.471,5.958-10.181,10.254l-32.52,37.5c6.738,1.271,12.572,3.076,17.505,5.42
		c4.93,2.344,9.009,5.104,12.231,8.276c3.223,3.175,5.614,6.617,7.178,10.327c1.561,3.713,2.344,7.617,2.344,11.719
		c0,3.809-0.732,7.397-2.197,10.767s-3.468,6.397-6.006,9.082c-2.541,2.687-5.566,5.006-9.082,6.958
		c-3.516,1.955-7.375,3.468-11.572,4.541c-4.102,1.076-9.302,1.856-15.601,2.344c-6.299,0.49-13.747,0.732-22.339,0.732h-57.861
		v-5.566h5.713c3.124,0,5.786-0.366,7.983-1.099s4.175-1.78,5.933-3.149c0.975-1.172,1.758-3.025,2.344-5.566
		c0.586-2.538,0.879-5.859,0.879-9.961v-83.203c0-7.713-0.93-12.598-2.783-14.648c-2.442-3.71-7.229-5.566-14.355-5.566h-5.713
		v-5.42h68.408v5.42h-6.152c-3.127,0-5.812,0.417-8.057,1.245c-2.248,0.831-4.152,1.93-5.713,3.296
		c-2.344,2.051-3.516,7.276-3.516,15.674v35.742h2.637c0.78,0,1.707-0.023,2.783-0.073c1.073-0.048,2.293-0.073,3.662-0.073h3.955
		c1.465,0,2.879,0.05,4.248,0.146l54.346-61.377h42.627V138.33z M218.823,231.348c0-8.592-3.809-15.429-11.426-20.508
		c-7.617-5.076-19.336-7.617-35.156-7.617h-6.885v53.467c4.296,0.49,7.958,0.855,10.986,1.099c3.025,0.245,5.614,0.366,7.764,0.366
		c5.175,0,9.91-0.609,14.209-1.831c4.296-1.22,7.958-2.978,10.986-5.273c3.025-2.294,5.369-5.102,7.031-8.423
		C217.992,239.309,218.823,235.548,218.823,231.348z"/>
</g>
</svg>
